<?xml version="1.0" encoding="UTF-8"?>
<svg id="Layer_1" xmlns="http://www.w3.org/2000/svg" version="1.1" viewBox="0 0 800 800">
  <!-- Generator: Adobe Illustrator 29.8.4, SVG Export Plug-In . SVG Version: 2.1.1 Build 6)  -->
  <defs>
    <style>
      .st0 {
        fill: #43a7fd;
        fill-rule: evenodd;
      }
    </style>
  </defs>
  <path class="st0" d="M400,733.33c-157.13,0-235.7,0-284.52-48.82-48.82-48.81-48.82-127.38-48.82-284.52s0-235.7,48.82-284.52c48.82-48.82,127.38-48.82,284.52-48.82s235.7,0,284.52,48.82c48.82,48.82,48.82,127.38,48.82,284.52s0,235.7-48.82,284.52c-48.81,48.82-127.38,48.82-284.52,48.82ZM400,275c13.81,0,25,11.19,25,25v75h75c13.81,0,25,11.19,25,25s-11.19,25-25,25h-75v75c0,13.81-11.19,25-25,25s-25-11.19-25-25v-75h-75c-13.81,0-25-11.19-25-25s11.19-25,25-25h75v-75c0-13.81,11.19-25,25-25Z"/>
</svg>