<?xml version="1.0" encoding="UTF-8"?>
<svg id="Layer_1" xmlns="http://www.w3.org/2000/svg" version="1.1" viewBox="0 0 800 800">
  <!-- Generator: Adobe Illustrator 29.8.4, SVG Export Plug-In . SVG Version: 2.1.1 Build 6)  -->
  <defs>
    <style>
      .st0 {
        fill: #43a7fd;
      }

      .st1 {
        fill: #1c274c;
        isolation: isolate;
        opacity: .2;
      }
    </style>
  </defs>
  <path class="st1" d="M136.09,363.14c14.63-78.03,21.95-117.05,49.72-140.09,27.77-23.05,67.47-23.05,146.86-23.05h134.7c79.39,0,119.08,0,146.86,23.05,27.77,23.05,35.09,62.06,49.72,140.09l25,133.33c20.57,109.72,30.86,164.58.87,200.72-29.99,36.14-85.81,36.14-197.44,36.14h-184.7c-111.64,0-167.45,0-197.44-36.14-29.99-36.14-19.7-91,.87-200.72l25-133.33Z"/>
  <path class="st0" d="M325,166.67c0-41.42,33.58-75,75-75s75,33.58,75,75v33.33s0,0,0,0c18.87,0,35.4.06,50,.5,0-.17,0-.33,0-.5v-33.33c0-69.04-55.96-125-125-125s-125,55.96-125,125v33.33c0,.17,0,.33,0,.5,14.6-.44,31.13-.49,50-.5,0,0,0,0,0,0v-33.33Z"/>
  <path class="st0" d="M317.68,348.99c-9.76-9.76-25.59-9.76-35.36,0-9.76,9.76-9.76,25.59,0,35.35l82.32,82.32-82.32,82.32c-9.76,9.76-9.76,25.59,0,35.35,9.76,9.76,25.59,9.76,35.36,0l82.32-82.32,82.32,82.32c9.76,9.76,25.59,9.76,35.36,0s9.76-25.59,0-35.36l-82.32-82.32,82.32-82.32c9.76-9.76,9.76-25.59,0-35.36s-25.59-9.76-35.35,0l-82.32,82.32-82.32-82.32Z"/>
</svg>