<?xml version="1.0" encoding="UTF-8"?>
<svg id="Layer_1" xmlns="http://www.w3.org/2000/svg" version="1.1" viewBox="0 0 800 800">
  <!-- Generator: Adobe Illustrator 29.8.4, SVG Export Plug-In . SVG Version: 2.1.1 Build 6)  -->
  <defs>
    <style>
      .st0, .st1 {
        fill: none;
        stroke: #8a9da8;
        stroke-miterlimit: 133.33;
        stroke-width: 50px;
      }

      .st1 {
        stroke-linecap: round;
      }
    </style>
  </defs>
  <path class="st0" d="M66.67,406.8c0-76.28,0-114.42,17.31-146.04,17.31-31.62,48.92-51.24,112.16-90.49l66.67-41.38c66.85-41.49,100.27-62.23,137.2-62.23s70.35,20.74,137.2,62.23l66.67,41.37c63.24,39.25,94.85,58.87,112.16,90.49,17.31,31.62,17.31,69.76,17.31,146.04v50.7c0,130.03,0,195.04-39.05,235.44-39.05,40.4-101.91,40.4-227.61,40.4h-133.33c-125.71,0-188.56,0-227.61-40.4-39.05-40.39-39.05-105.41-39.05-235.44v-50.7Z"/>
  <path class="st1" d="M500,600h-200"/>
</svg>