<?xml version="1.0" encoding="UTF-8"?>
<svg id="Layer_1" xmlns="http://www.w3.org/2000/svg" version="1.1" viewBox="0 0 800 800">
  <!-- Generator: Adobe Illustrator 29.8.4, SVG Export Plug-In . SVG Version: 2.1.1 Build 6)  -->
  <defs>
    <style>
      .st0 {
        fill: #43a7fd;
        fill-rule: evenodd;
      }
    </style>
  </defs>
  <path class="st0" d="M83.97,260.76c-17.31,31.62-17.31,69.76-17.31,146.04v50.7c0,130.03,0,195.04,39.05,235.44,39.05,40.4,101.91,40.4,227.61,40.4h133.33c125.71,0,188.56,0,227.61-40.4,39.05-40.39,39.05-105.41,39.05-235.44v-50.7c0-76.28,0-114.42-17.31-146.04-17.31-31.62-48.92-51.24-112.16-90.49l-66.67-41.37c-66.85-41.49-100.27-62.23-137.2-62.23s-70.35,20.74-137.2,62.23l-66.67,41.38c-63.24,39.25-94.85,58.87-112.16,90.49ZM300,575c-13.81,0-25,11.19-25,25s11.19,25,25,25h200c13.81,0,25-11.19,25-25s-11.19-25-25-25h-200Z"/>
</svg>