<?xml version="1.0" encoding="UTF-8"?>
<svg id="Layer_1" xmlns="http://www.w3.org/2000/svg" version="1.1" viewBox="0 0 800 800">
  <!-- Generator: Adobe Illustrator 29.8.4, SVG Export Plug-In . SVG Version: 2.1.1 Build 6)  -->
  <defs>
    <style>
      .st0 {
        fill: #43a7fd;
        fill-rule: evenodd;
      }
    </style>
  </defs>
  <path class="st0" d="M115.48,115.48c-48.82,48.82-48.82,127.38-48.82,284.52s0,235.7,48.82,284.52c48.82,48.82,127.38,48.82,284.52,48.82s235.7,0,284.52-48.82c48.82-48.81,48.82-127.38,48.82-284.52s0-235.7-48.82-284.52c-48.81-48.82-127.38-48.82-284.52-48.82s-235.7,0-284.52,48.82ZM182.02,369.44c12.43-109.45,105.45-194.44,218.3-194.44,66.07,0,125.35,29.16,165.6,75.22,9.08,10.4,8.02,26.19-2.38,35.28-10.4,9.08-26.19,8.02-35.27-2.38-31.14-35.65-76.9-58.12-127.94-58.12-85.25,0-155.77,62.74-167.88,144.44h12.11c10.11,0,19.23,6.1,23.1,15.44,3.87,9.34,1.72,20.1-5.43,27.25l-38.94,38.89c-9.76,9.75-25.57,9.75-35.33,0l-38.94-38.89c-7.16-7.15-9.3-17.9-5.43-27.25,3.87-9.35,12.99-15.44,23.1-15.44h15.35ZM576.73,348.98c9.76-9.75,25.57-9.75,35.33,0l38.94,38.89c7.16,7.15,9.3,17.9,5.44,27.25-3.87,9.35-12.99,15.44-23.1,15.44h-15.35c-12.42,109.45-105.45,194.44-218.3,194.44-66.07,0-125.35-29.16-165.6-75.22-9.08-10.4-8.02-26.19,2.38-35.28,10.4-9.08,26.19-8.02,35.28,2.38,31.14,35.65,76.9,58.12,127.94,58.12,85.25,0,155.77-62.74,167.88-144.44h-12.11c-10.12,0-19.23-6.1-23.1-15.44-3.87-9.34-1.72-20.1,5.44-27.25l38.94-38.89Z"/>
</svg>