<?xml version="1.0" encoding="UTF-8"?>
<svg id="Layer_1" xmlns="http://www.w3.org/2000/svg" version="1.1" viewBox="0 0 800 800">
  <!-- Generator: Adobe Illustrator 29.8.4, SVG Export Plug-In . SVG Version: 2.1.1 Build 6)  -->
  <defs>
    <style>
      .st0 {
        fill: #8a9da8;
      }

      .st1 {
        fill: none;
        stroke: #8a9da8;
        stroke-miterlimit: 133.33;
        stroke-width: 50px;
      }
    </style>
  </defs>
  <path class="st0" d="M245.92,387.65h-25,25ZM245.92,418.52l-18.72,16.57c4.51,5.09,10.9,8.13,17.7,8.4,6.8.28,13.41-2.22,18.32-6.93l-17.3-18.04ZM317.3,384.71c9.97-9.56,10.3-25.38.74-35.35-9.56-9.96-25.38-10.3-35.35-.74l34.6,36.09h.01ZM218.72,350.09c-9.15-10.34-24.95-11.3-35.29-2.14-10.34,9.15-11.3,24.95-2.14,35.29l37.43-33.15ZM497.72,300.31c9.38,10.14,25.19,10.75,35.33,1.38,10.14-9.38,10.75-25.19,1.38-35.33l-36.7,33.95h0ZM401.46,208.33c-99.52,0-180.54,80.1-180.54,179.32h50c0-71.24,58.26-129.32,130.54-129.32v-50h0ZM220.92,387.65v30.87h50v-30.87h-50,0ZM263.22,436.56l54.08-51.85-34.6-36.09-54.08,51.85,34.6,36.09h0ZM264.63,401.94l-45.92-51.85-37.43,33.15,45.92,51.85,37.43-33.15ZM534.43,266.36c-32.99-35.66-80.39-58.02-132.97-58.02v50c38.14,0,72.39,16.17,96.27,41.98l36.7-33.95h0Z"/>
  <path class="st0" d="M553.96,381.48l18.69-16.6c-4.52-5.08-10.91-8.11-17.7-8.38-6.79-.27-13.4,2.24-18.31,6.95l17.32,18.03ZM482.68,415.27c-9.96,9.56-10.28,25.39-.71,35.35,9.56,9.96,25.39,10.28,35.35.72l-34.63-36.06h-.01ZM581.31,449.91c9.17,10.32,24.97,11.25,35.29,2.08s11.26-24.97,2.09-35.29l-37.38,33.21h0ZM301.56,500.16c-9.45-10.07-25.27-10.57-35.34-1.12s-10.57,25.27-1.12,35.34l36.46-34.22ZM397.83,591.66c99.76,0,181.13-80.01,181.13-179.32h-50c0,71.15-58.43,129.32-131.13,129.32v50h0ZM578.96,412.34v-30.87h-50v30.87h50ZM536.64,363.45l-53.96,51.82,34.63,36.06,53.96-51.82-34.63-36.06ZM535.27,398.08l46.04,51.82,37.38-33.21-46.04-51.82-37.38,33.21ZM265.1,534.37c33.08,35.24,80.35,57.29,132.72,57.29v-50c-38.09,0-72.31-15.98-96.26-41.51l-36.46,34.22Z"/>
  <path class="st1" d="M66.67,400c0-157.13,0-235.7,48.82-284.52,48.82-48.82,127.38-48.82,284.52-48.82s235.7,0,284.52,48.82c48.82,48.82,48.82,127.38,48.82,284.52s0,235.7-48.82,284.52c-48.81,48.82-127.38,48.82-284.52,48.82s-235.7,0-284.52-48.82c-48.82-48.81-48.82-127.38-48.82-284.52h0Z"/>
</svg>