<?xml version="1.0" encoding="UTF-8"?>
<svg id="Layer_1" xmlns="http://www.w3.org/2000/svg" version="1.1" viewBox="0 0 800 800">
  <!-- Generator: Adobe Illustrator 30.1.0, SVG Export Plug-In . SVG Version: 2.1.1 Build 136)  -->
  <defs>
    <style>
      .st0 {
        fill: #3b82f6;
        fill-rule: evenodd;
      }
    </style>
  </defs>
  <path class="st0" d="M282.32,82.32c9.76-9.76,25.59-9.76,35.36,0l66.67,66.67c7.15,7.15,9.29,17.9,5.42,27.24-3.87,9.34-12.99,15.43-23.1,15.43h-66.67c-115.06,0-208.33,93.27-208.33,208.33s93.28,208.33,208.34,208.33h16.66c13.81,0,25,11.19,25,25s-11.19,25-25,25h-16.66c-142.67,0-258.34-115.66-258.34-258.33S157.33,141.67,300,141.67h6.31l-23.99-23.99c-9.76-9.76-9.76-25.59,0-35.36ZM458.33,166.67c0-13.81,11.19-25,25-25h16.67c142.67,0,258.33,115.66,258.33,258.33s-115.66,258.33-258.33,258.33h-6.31l23.99,23.99c9.76,9.76,9.76,25.59,0,35.35s-25.59,9.76-35.35,0l-66.67-66.67c-7.15-7.15-9.29-17.9-5.42-27.24,3.87-9.34,12.99-15.43,23.1-15.43h66.67c115.06,0,208.33-93.27,208.33-208.33s-93.27-208.33-208.33-208.33h-16.67c-13.81,0-25-11.19-25-25Z"/>
</svg>